<svg xmlns="http://www.w3.org/2000/svg" width="1200" height="520" viewBox="0 0 1200 520" role="img" aria-labelledby="title desc">
  <title id="title">PV Forecast Quality Card preview</title>
  <desc id="desc">Two independent Home Assistant cards compare Solcast and Helios Forecast against actual PV production.</desc>
  <rect width="1200" height="520" fill="#f1f3f7"/>
  <text x="70" y="58" fill="#171a21" font-family="Inter,Arial,sans-serif" font-size="27" font-weight="700">PV-Prognosen im Vergleich</text>
  <text x="70" y="83" fill="#667085" font-family="Inter,Arial,sans-serif" font-size="14">Day-ahead-Prognose gegen die tatsächliche PV-Erzeugung</text>

  <g transform="translate(70 115)" font-family="Inter,Arial,sans-serif">
    <rect width="515" height="340" rx="14" fill="#ffffff"/>
    <text x="24" y="34" fill="#667085" font-size="12">PV-Prognosequalität</text>
    <text x="24" y="59" fill="#171a21" font-size="19" font-weight="700">Leistungsgenauigkeit</text>
    <text x="24" y="81" fill="#667085" font-size="12">Heute · abgeschlossene 15-Minuten-Intervalle</text>
    <circle cx="485" cy="32" r="8" fill="none" stroke="#667085" stroke-width="1.5"/>
    <text x="483" y="36" text-anchor="middle" fill="#667085" font-size="11" font-weight="700">i</text>
    <text x="24" y="116" fill="#667085" font-size="12">Näher an der Ist-Leistung</text>
    <circle cx="32" cy="139" r="7" fill="none" stroke="#171a21" stroke-width="1.4"/>
    <path d="m28 139 3 3 5-6" fill="none" stroke="#171a21" stroke-width="1.4"/>
    <text x="47" y="147" fill="#171a21" font-size="22" font-weight="700">Helios Forecast</text>
    <text x="24" y="169" fill="#171a21" font-size="12">0,28 kW weniger mittlerer Abstand als Solcast</text>
    <circle cx="28" cy="202" r="5" fill="#22c55e"/>
    <text x="42" y="206" fill="#171a21" font-size="12">Solcast</text>
    <text x="491" y="206" text-anchor="end" fill="#171a21" font-size="12" font-weight="600">1,50 kW</text>
    <rect x="24" y="216" width="467" height="8" rx="4" fill="#e5e7eb"/>
    <rect x="24" y="216" width="350" height="8" rx="4" fill="#86dca6"/>
    <circle cx="374" cy="220" r="7" fill="#22c55e" stroke="#fff" stroke-width="2"/>
    <rect x="24" y="246" width="9" height="9" rx="2" transform="rotate(45 28.5 250.5)" fill="#7c4dff"/>
    <text x="42" y="255" fill="#171a21" font-size="12">Helios Forecast</text>
    <text x="491" y="255" text-anchor="end" fill="#171a21" font-size="12" font-weight="600">1,22 kW</text>
    <rect x="24" y="265" width="467" height="8" rx="4" fill="#e5e7eb"/>
    <rect x="24" y="265" width="285" height="8" rx="4" fill="#b38aef"/>
    <rect x="302" y="263" width="14" height="14" rx="3" transform="rotate(45 309 270)" fill="#7c4dff" stroke="#fff" stroke-width="2"/>
    <text x="24" y="292" fill="#667085" font-size="11">0 · ideal</text>
    <text x="491" y="292" text-anchor="end" fill="#667085" font-size="11">2 kW</text>
    <line x1="24" y1="310" x2="491" y2="310" stroke="#e4e7ec"/>
    <text x="24" y="330" fill="#667085" font-size="11">26 ausgewertete Viertelstunden · Testlauf</text>
  </g>

  <g transform="translate(615 115)" font-family="Inter,Arial,sans-serif">
    <rect width="515" height="340" rx="14" fill="#ffffff"/>
    <text x="24" y="34" fill="#667085" font-size="12">PV-Prognosequalität</text>
    <text x="24" y="59" fill="#171a21" font-size="19" font-weight="700">Ertragsprognose</text>
    <text x="24" y="81" fill="#667085" font-size="12">Heute · abgeschlossene 15-Minuten-Intervalle</text>
    <circle cx="485" cy="32" r="8" fill="none" stroke="#667085" stroke-width="1.5"/>
    <text x="483" y="36" text-anchor="middle" fill="#667085" font-size="11" font-weight="700">i</text>
    <text x="24" y="116" fill="#667085" font-size="12">Näher am tatsächlichen Ertrag</text>
    <circle cx="32" cy="139" r="7" fill="none" stroke="#171a21" stroke-width="1.4"/>
    <path d="m28 139 3 3 5-6" fill="none" stroke="#171a21" stroke-width="1.4"/>
    <text x="47" y="147" fill="#171a21" font-size="22" font-weight="700">Helios Forecast</text>
    <text x="24" y="169" fill="#171a21" font-size="12">-2,4 % · bisher etwas zu wenig erwartet</text>
    <circle cx="28" cy="202" r="5" fill="#22c55e"/>
    <text x="42" y="206" fill="#171a21" font-size="12">Solcast</text>
    <text x="491" y="206" text-anchor="end" fill="#171a21" font-size="12" font-weight="600">+23,7 %</text>
    <rect x="24" y="216" width="467" height="8" fill="#e5e7eb"/>
    <rect x="257" y="216" width="217" height="8" fill="#86dca6"/>
    <line x1="257" y1="210" x2="257" y2="230" stroke="#171a21" stroke-width="2"/>
    <circle cx="474" cy="220" r="7" fill="#22c55e" stroke="#fff" stroke-width="2"/>
    <rect x="24" y="246" width="9" height="9" rx="2" transform="rotate(45 28.5 250.5)" fill="#7c4dff"/>
    <text x="42" y="255" fill="#171a21" font-size="12">Helios Forecast</text>
    <text x="491" y="255" text-anchor="end" fill="#171a21" font-size="12" font-weight="600">-2,4 %</text>
    <rect x="24" y="265" width="467" height="8" fill="#e5e7eb"/>
    <rect x="238" y="265" width="19" height="8" fill="#b38aef"/>
    <line x1="257" y1="259" x2="257" y2="279" stroke="#171a21" stroke-width="2"/>
    <rect x="231" y="263" width="14" height="14" rx="3" transform="rotate(45 238 270)" fill="#7c4dff" stroke="#fff" stroke-width="2"/>
    <text x="24" y="292" fill="#667085" font-size="11">zu wenig</text>
    <text x="257" y="292" text-anchor="middle" fill="#171a21" font-size="11" font-weight="600">0 · ideal</text>
    <text x="491" y="292" text-anchor="end" fill="#667085" font-size="11">zu viel</text>
    <line x1="24" y1="310" x2="491" y2="310" stroke="#e4e7ec"/>
    <text x="24" y="330" fill="#667085" font-size="11">26 ausgewertete Viertelstunden · Testlauf</text>
  </g>
</svg>
