<svg xmlns="http://www.w3.org/2000/svg" width="1200" height="430" viewBox="0 0 1200 430" role="img" aria-labelledby="title desc">
  <title id="title">PV Forecast Quality Card preview</title>
  <desc id="desc">Two compact Home Assistant cards compare Solcast and Helios Forecast against actual PV production.</desc>
  <rect width="1200" height="430" fill="#f1f3f7"/>
  <text x="70" y="55" fill="#171a21" font-family="Inter,Arial,sans-serif" font-size="27" font-weight="700">PV-Prognosen im Vergleich</text>
  <text x="70" y="80" fill="#667085" font-family="Inter,Arial,sans-serif" font-size="14">Day-ahead-Prognose gegen die tatsächliche PV-Erzeugung</text>

  <g transform="translate(70 110)" font-family="Inter,Arial,sans-serif">
    <rect width="515" height="270" rx="14" fill="#ffffff"/>
    <text x="24" y="38" fill="#171a21" font-size="18" font-weight="700">Prognosegenauigkeit · Leistungsverlauf</text>
    <circle cx="485" cy="32" r="8" fill="none" stroke="#667085" stroke-width="1.5"/>
    <text x="483" y="36" text-anchor="middle" fill="#667085" font-size="11" font-weight="700">i</text>
    <circle cx="32" cy="70" r="7" fill="none" stroke="#171a21" stroke-width="1.4"/>
    <path d="m28 70 3 3 5-6" fill="none" stroke="#171a21" stroke-width="1.4"/>
    <text x="47" y="77" fill="#171a21" font-size="22" font-weight="700">Helios Forecast liegt näher</text>
    <text x="24" y="99" fill="#667085" font-size="12">0,28 kW weniger Abweichung</text>
    <circle cx="28" cy="128" r="5" fill="#22c55e"/>
    <text x="42" y="132" fill="#171a21" font-size="12">Solcast</text>
    <text x="491" y="132" text-anchor="end" fill="#171a21" font-size="12" font-weight="600">1,50 kW</text>
    <rect x="24" y="142" width="467" height="8" rx="4" fill="#e5e7eb"/>
    <rect x="24" y="142" width="350" height="8" rx="4" fill="#86dca6"/>
    <circle cx="374" cy="146" r="7" fill="#22c55e" stroke="#fff" stroke-width="2"/>
    <circle cx="28" cy="174" r="5" fill="#7c4dff"/>
    <text x="42" y="178" fill="#171a21" font-size="12">Helios Forecast</text>
    <text x="491" y="178" text-anchor="end" fill="#171a21" font-size="12" font-weight="600">1,22 kW</text>
    <rect x="24" y="188" width="467" height="8" rx="4" fill="#e5e7eb"/>
    <rect x="24" y="188" width="285" height="8" rx="4" fill="#b38aef"/>
    <circle cx="309" cy="193" r="7" fill="#7c4dff" stroke="#fff" stroke-width="2"/>
    <text x="24" y="216" fill="#667085" font-size="11">0 · genau</text>
    <text x="491" y="216" text-anchor="end" fill="#667085" font-size="11">2 kW · größere Abweichung</text>
    <line x1="24" y1="232" x2="491" y2="232" stroke="#e4e7ec"/>
    <text x="24" y="253" fill="#667085" font-size="11">26 Messpunkte ausgewertet · Testlauf</text>
  </g>

  <g transform="translate(615 110)" font-family="Inter,Arial,sans-serif">
    <rect width="515" height="270" rx="14" fill="#ffffff"/>
    <text x="24" y="38" fill="#171a21" font-size="18" font-weight="700">Prognosegenauigkeit · Tagesenergie</text>
    <circle cx="485" cy="32" r="8" fill="none" stroke="#667085" stroke-width="1.5"/>
    <text x="483" y="36" text-anchor="middle" fill="#667085" font-size="11" font-weight="700">i</text>
    <circle cx="32" cy="70" r="7" fill="none" stroke="#171a21" stroke-width="1.4"/>
    <path d="m28 70 3 3 5-6" fill="none" stroke="#171a21" stroke-width="1.4"/>
    <text x="47" y="77" fill="#171a21" font-size="22" font-weight="700">Helios Forecast liegt näher</text>
    <text x="24" y="99" fill="#667085" font-size="12">2,4 % weniger erwartet als erzeugt</text>
    <circle cx="28" cy="128" r="5" fill="#22c55e"/>
    <text x="42" y="132" fill="#171a21" font-size="12">Solcast</text>
    <text x="491" y="132" text-anchor="end" fill="#171a21" font-size="12" font-weight="600">+23,7 %</text>
    <rect x="24" y="142" width="467" height="8" fill="#e5e7eb"/>
    <rect x="257" y="142" width="217" height="8" fill="#86dca6"/>
    <line x1="257" y1="136" x2="257" y2="156" stroke="#171a21" stroke-width="2"/>
    <circle cx="474" cy="146" r="7" fill="#22c55e" stroke="#fff" stroke-width="2"/>
    <circle cx="28" cy="174" r="5" fill="#7c4dff"/>
    <text x="42" y="178" fill="#171a21" font-size="12">Helios Forecast</text>
    <text x="491" y="178" text-anchor="end" fill="#171a21" font-size="12" font-weight="600">-2,4 %</text>
    <rect x="24" y="188" width="467" height="8" fill="#e5e7eb"/>
    <rect x="238" y="188" width="19" height="8" fill="#b38aef"/>
    <line x1="257" y1="182" x2="257" y2="202" stroke="#171a21" stroke-width="2"/>
    <circle cx="238" cy="193" r="7" fill="#7c4dff" stroke="#fff" stroke-width="2"/>
    <text x="24" y="216" fill="#667085" font-size="11">zu wenig erwartet</text>
    <text x="257" y="216" text-anchor="middle" fill="#171a21" font-size="11" font-weight="600">0 · genau</text>
    <text x="491" y="216" text-anchor="end" fill="#667085" font-size="11">zu viel erwartet</text>
    <line x1="24" y1="232" x2="491" y2="232" stroke="#e4e7ec"/>
    <text x="24" y="253" fill="#667085" font-size="11">26 Messpunkte ausgewertet · Testlauf</text>
  </g>
</svg>
